<?xml version="1.0" encoding="UTF-8" standalone="no"?>
<!-- Created with Inkscape (http://www.inkscape.org/) -->

<svg
   width="38.881016mm"
   height="39.819195mm"
   viewBox="0 0 38.881016 39.819195"
   version="1.1"
   id="svg1"
   xml:space="preserve"
   xmlns:inkscape="http://www.inkscape.org/namespaces/inkscape"
   xmlns:sodipodi="http://sodipodi.sourceforge.net/DTD/sodipodi-0.dtd"
   xmlns="http://www.w3.org/2000/svg"
   xmlns:svg="http://www.w3.org/2000/svg"><sodipodi:namedview
     id="namedview1"
     pagecolor="#ffffff"
     bordercolor="#000000"
     borderopacity="0.25"
     inkscape:showpageshadow="2"
     inkscape:pageopacity="0.0"
     inkscape:pagecheckerboard="0"
     inkscape:deskcolor="#d1d1d1"
     inkscape:document-units="mm" /><defs
     id="defs1" /><g
     inkscape:label="Camada 1"
     inkscape:groupmode="layer"
     id="layer1"
     transform="translate(-22.934779,-115.07379)"><path
       style="opacity:1;fill:#01bb75;fill-opacity:1;stroke-width:1.38071"
       d="m 130.1322,581.02812 c -11.17985,-4.7752 -11.59047,-5.62871 -7.27906,-15.13018 1.5021,-3.31035 2.74474,-7.13692 2.76142,-8.50349 0.0371,-3.04183 -8.42262,-12.01281 -11.32823,-12.01281 -1.15773,0 -5.54865,1.52296 -9.75759,3.38436 -8.971794,3.96775 -8.562452,4.2521 -14.673849,-10.19345 -4.903577,-11.59062 -4.858907,-11.72253 5.414307,-15.98823 9.192282,-3.81688 9.664992,-4.42388 9.664992,-12.41086 0,-7.98698 -0.47271,-8.59398 -9.664992,-12.41086 -10.269794,-4.26428 -10.286842,-4.31826 -5.207358,-16.48749 2.4794,-5.94005 5.346632,-11.12191 6.371627,-11.51524 1.024994,-0.39333 5.077613,0.61698 9.005823,2.24514 3.9282,1.62815 8.01805,2.96027 9.08854,2.96027 2.38901,0 11.11705,-9.31015 11.11705,-11.85849 0,-1.01553 -1.24264,-4.99902 -2.76142,-8.85221 -1.51879,-3.85318 -2.76143,-7.82863 -2.76143,-8.83431 0,-1.785 18.74142,-10.49567 22.58192,-10.49567 1.10011,0 3.275,3.58519 5.04331,8.31362 1.71,4.57248 3.72443,8.69391 4.47651,9.15873 1.83994,1.13714 14.13161,1.07925 15.9998,-0.0754 0.81914,-0.50625 2.84107,-4.62768 4.49317,-9.15873 1.70183,-4.66743 3.83498,-8.23826 4.92139,-8.23826 1.05466,0 6.5633,1.95011 12.24142,4.33357 11.52508,4.83781 11.92629,5.64052 7.59274,15.19081 -1.50211,3.31035 -2.74475,7.12683 -2.76143,8.48108 -0.0358,2.90564 8.67863,12.03522 11.48791,12.03522 1.06991,0 5.38897,-1.52296 9.59791,-3.38436 9.04898,-4.00188 8.82536,-4.15802 14.80201,10.33551 4.72786,11.46516 4.68018,11.60146 -5.54247,15.84617 -9.19228,3.81688 -9.66499,4.42388 -9.66499,12.41086 0,7.98698 0.47271,8.59398 9.66499,12.41086 10.09768,4.19282 10.09609,4.1876 5.05198,16.57797 -2.75199,6.75995 -5.38284,11.2107 -6.78647,11.48101 -1.26074,0.2428 -5.19315,-0.84175 -8.73868,-2.4101 -8.62351,-3.81459 -9.65406,-3.66683 -15.16274,2.17407 -5.47327,5.80337 -5.66217,7.30544 -1.94802,15.49067 4.33355,9.55029 3.93234,10.35301 -7.59274,15.19081 -5.67812,2.38347 -11.12543,4.33357 -12.10514,4.33357 -0.97971,0 -3.27315,-3.75593 -5.09652,-8.34649 -1.82337,-4.59057 -3.87804,-8.69434 -4.56593,-9.11948 -0.68789,-0.42514 -4.3892,-0.87753 -8.22514,-1.00531 -7.83343,-0.26095 -8.63468,0.48118 -12.86194,11.91289 -1.54682,4.18307 -3.23236,6.53691 -4.65384,6.49909 -1.22577,-0.0326 -6.73324,-1.98333 -12.23884,-4.3349 z m 46.40951,-43.54215 c 3.77031,-2.331 8.01941,-6.64632 10.5084,-10.67218 3.63222,-5.87496 4.17864,-8.05097 4.17864,-16.64033 0,-8.58936 -0.54642,-10.76537 -4.17864,-16.64033 -2.59003,-4.18929 -6.74814,-8.34739 -10.93742,-10.93743 -5.75119,-3.55569 -8.12902,-4.17864 -15.94998,-4.17864 -7.82096,0 -10.19879,0.62295 -15.94997,4.17864 -4.18929,2.59004 -8.34739,6.74814 -10.93743,10.93743 -3.62093,5.85671 -4.17864,8.06321 -4.17864,16.53206 0,8.17874 0.62034,10.82855 3.80228,16.24142 9.22289,15.68926 28.40188,20.60208 43.64276,11.17936 z"
       id="path1"
       transform="scale(0.26458333)" /></g></svg>
