<svg xmlns="http://www.w3.org/2000/svg" viewBox="0 0 256 128" width="256" height="128" role="img" aria-label="Infinity icon">
  <path
    d="M 36 64
       C 36 36, 58 22, 80 22
       C 108 22, 128 48, 128 64
       C 128 80, 108 106, 80 106
       C 58 106, 36 92, 36 64

       M 220 64
       C 220 36, 198 22, 176 22
       C 148 22, 128 48, 128 64
       C 128 80, 148 106, 176 106
       C 198 106, 220 92, 220 64

       M 80 22
       C 104 22, 116 40, 128 64
       C 140 88, 152 106, 176 106"
    fill="none"
    stroke="#0A3DCC"
    stroke-width="18"
    stroke-linecap="round"
    stroke-linejoin="round"
  />
</svg>
